<svg id="visual" viewBox="0 0 900 600" width="900" height="600" xmlns="http://www.w3.org/2000/svg" xmlns:xlink="http://www.w3.org/1999/xlink" version="1.1"><rect x="0" y="0" width="900" height="600" fill="#FFFFFF"></rect><path d="M0 306L25 293.8C50 281.7 100 257.3 150 255.7C200 254 250 275 300 284C350 293 400 290 450 271.2C500 252.3 550 217.7 600 195.7C650 173.7 700 164.3 750 163.8C800 163.3 850 171.7 875 175.8L900 180L900 0L875 0C850 0 800 0 750 0C700 0 650 0 600 0C550 0 500 0 450 0C400 0 350 0 300 0C250 0 200 0 150 0C100 0 50 0 25 0L0 0Z" fill="#efbd00" stroke-linecap="round" stroke-linejoin="miter"></path></svg>